<?xml version="1.0" encoding="UTF-8" standalone="no"?>
<!-- Created with Inkscape (http://www.inkscape.org/) -->

<svg
   width="1024"
   height="1024"
   viewBox="0 0 1024 1024"
   version="1.1"
   id="svg1"
   inkscape:version="1.4.3 (0d15f75042, 2025-12-25)"
   sodipodi:docname="islandIcon.svg"
   xmlns:inkscape="http://www.inkscape.org/namespaces/inkscape"
   xmlns:sodipodi="http://sodipodi.sourceforge.net/DTD/sodipodi-0.dtd"
   xmlns="http://www.w3.org/2000/svg"
   xmlns:svg="http://www.w3.org/2000/svg">
  <sodipodi:namedview
     id="namedview1"
     pagecolor="#505050"
     bordercolor="#ffffff"
     borderopacity="1"
     inkscape:showpageshadow="0"
     inkscape:pageopacity="0"
     inkscape:pagecheckerboard="1"
     inkscape:deskcolor="#505050"
     inkscape:document-units="px"
     inkscape:zoom="0.99439546"
     inkscape:cx="522.42797"
     inkscape:cy="562.65341"
     inkscape:window-width="2880"
     inkscape:window-height="1800"
     inkscape:window-x="0"
     inkscape:window-y="0"
     inkscape:window-maximized="0"
     inkscape:current-layer="layer1" />
  <defs
     id="defs1">
    <inkscape:path-effect
       effect="roughen"
       id="path-effect2"
       is_visible="true"
       lpeversion="1.2"
       global_randomize="1;3508831080"
       displace_x="5;1"
       displace_y="5;1"
       method="size"
       max_segment_size="2.00027"
       segments="2"
       handles="rand"
       shift_nodes="true"
       fixed_displacement="false"
       spray_tool_friendly="false" />
    <inkscape:path-effect
       effect="roughen"
       id="path-effect1"
       is_visible="true"
       lpeversion="1.2"
       global_randomize="2.7;1"
       displace_x="5;3461541487"
       displace_y="5;3102095901"
       method="size"
       max_segment_size="2"
       segments="4"
       handles="retract"
       shift_nodes="true"
       fixed_displacement="false"
       spray_tool_friendly="false" />
  </defs>
  <g
     inkscape:label="Layer 1"
     inkscape:groupmode="layer"
     id="layer1">
    <path
       style="fill:#ba997a;fill-opacity:1;stroke-width:8.29597;stroke-linecap:square;stroke-linejoin:round"
       id="path1"
       inkscape:path-effect="#path-effect1"
       sodipodi:type="arc"
       sodipodi:cx="484.36826"
       sodipodi:cy="456.41144"
       sodipodi:rx="102.72508"
       sodipodi:ry="72.167618"
       d="m 585.36299,451.55782 0.35998,0.91294 -2.73673,6.62429 -1.14684,3.53513 -4.46719,-4.75553 -0.62679,8.00363 -0.70072,3.26076 -3.05695,4.18991 -2.28611,-2.38396 -0.11578,1.8649 -4.15712,-1.46299 1.22306,5.25179 1.09596,0.42074 -0.37925,-7.39565 2.43796,2.66435 2.65683,5.38889 0.54124,-0.42918 -1.30313,1.14863 -4.22394,3.51524 -2.9517,1.26498 0.5227,-2.71615 -2.43618,3.38575 4.51056,4.0923 -0.45437,1.75789 -0.38952,1.72783 -0.78951,0.74494 -1.09895,1.90109 4.00313,4.39674 -2.45521,6.15443 0.57843,6.4888 0.21834,0.26685 -3.08779,-3.83814 -10.59626,-1.1876 -5.95157,-6.65524 -2.03108,1.39483 1.24299,1.97841 -5.51569,7.89305 1.14944,0.79308 1.92563,3.74991 -5.44421,-8.31555 2.35777,2.85391 1.65203,-2.93825 -3.69136,0.35644 -6.2162,10.57145 3.35255,-5.82385 -2.06113,-3.39549 -6.10147,1.16005 -1.53495,8.38421 -0.30323,-0.53765 -0.30605,-6.44074 -4.20863,6.89666 3.11597,-2.22079 -5.9435,4.00076 -6.19886,1.25315 -0.22896,5.57084 0.0779,3.11462 3.43293,-1.53659 -7.58826,1.80572 4.43185,0.0837 -6.6606,-2.07217 -4.32527,1.26729 -2.78502,-2.10991 1.76447,-1.02123 -0.0802,0.94567 -5.33633,4.95129 -6.53947,-0.91668 12.21254,-2.6845 -10.4922,-2.57145 2.02275,-4.94044 -11.02599,5.37714 -3.28869,3.11463 -0.21218,-0.44701 -9.07278,-1.15892 v 1.98907 l -0.88989,-2.27066 -2.92388,-0.34319 -0.24636,-0.26244 -0.19611,0.84149 -2.84642,0.10238 4.57677,-1.30518 -5.66968,-4.88486 -5.1408,4.91179 -3.38139,0.56524 1.51406,-0.33123 1.64865,-0.96897 -5.54226,-1.02594 -0.9609,-0.37767 -1.22971,-0.0448 -6.73841,3.93524 -2.28332,4.07177 -12.18599,-1.75434 -0.90239,-9.96093 -0.0544,-2.66721 -1.38325,1.70192 3.32062,0.95705 -1.32557,-7.04498 -4.30114,0.21093 4.56131,3.80533 -2.98496,-1.4671 5.29872,1.26673 -5.72713,-3.9193 -9.34746,-1.10312 -4.63857,2.60541 -3.02131,-0.50374 4.59142,3.0038 -4.5236,-8.32413 -6.71622,0.30466 6.33708,0.0361 -5.13182,-2.18345 5.63082,-0.84318 -4.71087,-4.35048 3.95817,-1.61499 0.86074,1.0158 -4.5153,1.67884 -2.77333,-1.51702 2.02013,-4.98292 -5.00144,1.93633 -2.62371,-6.24073 0.82315,-1.06601 0.88721,1.48528 -0.61359,-1.02793 -3.33584,-2.23032 3.17087,2.13606 -1.33208,-12.24285 -3.92878,-0.0729 9.61702,0.60081 -12.15736,-5.50786 -7.36265,2.24065 10.69557,1.10513 -6.21381,-8.85927 2.37557,6.19036 0.11076,-2.99415 0.43219,-5.17221 1.66732,-3.27963 1.09217,0.63858 0.0595,-3.86018 0.46015,-0.38715 -2.42298,3.74238 -1.49411,2.26833 -5.67395,-7.08164 -0.45048,-1.99359 1.2898,-1.45748 0.078,1.24188 -3.35035,3.0959 6.70658,-10.8961 0.80086,0.052 0.33738,-2.08789 -0.10867,-1.35374 -0.24061,-0.72586 5.73077,3.13687 -0.82175,-6.96338 0.24558,1.56473 3.4207,-2.88598 5.42033,-4.13508 7.96504,2.11366 4.85425,-9.57041 -0.65321,-8.48973 0.60974,4.45605 -0.20752,-2.96215 2.90137,7.33509 0.58965,-6.43618 1.60039,-3.3096 7.00626,2.53483 -2.61967,-8.88669 0.12315,-3.22323 0.40186,-0.37884 2.6951,-1.27672 0.89015,-3.03033 10.02926,-1.12704 -0.28877,-5.40307 -5.09596,-4.10032 6.11719,-0.16438 -5.52748,-5.40553 1.32329,0.87942 -0.3218,3.35648 4.89627,8.15673 -0.28737,-1.79621 0.96567,0.29342 -1.66749,-1.59521 -4.98299,-0.57163 -0.17406,-4.78276 2.15572,2.38211 -7.87307,0.43465 11.19629,1.46791 0.58229,-3.34468 -2.41754,0.13904 0.24006,-5.06461 6.75429,0.93474 -1.14634,0.68619 3.27014,-5.90121 2.37666,2.5536 1.3408,-2.52778 1.97141,3.77128 -3.32175,3.59683 2.23674,1.50814 1.21969,5.32623 0.0402,4.02718 -6.58356,3.26706 4.19118,2.27725 -0.22989,-0.43877 1.68156,10.31542 2.14934,-1.75136 0.20393,1.53568 2.62642,-2.1413 -0.39666,1.03277 1.69221,3.6743 1.96865,1.08578 -3.85967,-6.11962 5.67783,7.5307 1.10629,1.83967 1.40693,1.59976 0.57095,1.89253 4.51976,-3.52226 2.53905,10.96077 4.14047,-4.61817 2.29834,-1.60093 1.99923,-3.58331 0.46238,11.05583 2.30301,-1.63765 -1.43078,3.18679 -2.60514,2.7797 1.16888,2.8668 0.39281,2.13213 -1.90376,4.36764 -2.29492,1.96853 6.04804,3.24767 2.78468,0.59139 4.36832,0.0399 -0.22286,-0.11868 -0.6858,-1.95707 3.93217,-3.34895 2.73904,-2.74522 5.27599,0.0294 0.0702,-5.8461 -1.52562,1.52546 3.17014,0.77443 3.57956,-2.22349 2.96555,0.37412 2.18567,0.32275 1.7156,1.39438 3.52754,0.39582 -2.99062,5.28374 -4.5933,3.23814 6.93289,-2.78602 3.57424,5.88116 4.38559,2.32876 -1.12575,0.15816 5.9039,-0.33037 0.15161,1.03244 3.52977,0.21534 -0.0237,0.0683 3.86601,0.85324 -0.15026,0.74286 -0.22829,-0.10316 7.66448,-2.81696 -3.82654,0.49768 -0.54117,0.92968 7.12355,-2.45687 2.16882,-1.36015 -4.14743,-0.18334 4.13161,-1.85061 -1.39383,0.0399 11.79176,0.42863 7.07877,-0.11062 7.68109,4.07311 4.47006,4.21216 7.12141,0.0906 1.69079,0.0741 5.85558,0.23298 -5.08157,-4.4072 -8.30916,-0.66041 1.79255,2.76855 1.47389,-1.53506 -0.0556,0.44247 -0.85693,5.57337 3.96216,-6.09005 1.47718,0.7665 -5.45086,-0.83438 3.18208,3.14906 5.91901,-8.6382 z"
       sodipodi:start="0"
       sodipodi:end="4.3163146"
       sodipodi:arc-type="slice"
       transform="matrix(4.851169,0,0,6.9008658,-1836.0233,-2651.9795)" />
    <path
       style="fill:#ba997a;fill-opacity:1;stroke-width:22.5412;stroke-linecap:square;stroke-linejoin:round"
       id="path2"
       inkscape:path-effect="#path-effect2"
       sodipodi:type="arc"
       sodipodi:cx="449.30997"
       sodipodi:cy="388.85907"
       sodipodi:rx="62.690025"
       sodipodi:ry="50.006828"
       d="m 508.90665,385.76573 c 4.22821,4.84195 1.18587,2.42461 1.61233,3.48694 0.3783,1.45822 -0.90106,1.29008 -0.47143,2.86016 0.37863,1.09003 0.17202,1.60618 -0.11374,2.05406 -0.7654,-0.14498 -2.3714,-1.12279 -3.30035,-1.41608 -0.001,1.49693 1.41984,4.45799 -0.38469,4.23076 -0.0509,0.3997 1.60035,2.50462 0.57639,1.9373 -0.58817,-0.13656 -1.57527,-0.66914 -1.36595,-0.003 -0.3488,0.4986 -2.04236,-0.33791 -1.28695,1.28362 0.14737,1.09391 1.2746,3.17853 -0.15902,2.71239 -1.39675,-0.87833 1.26924,2.30898 0.99418,2.55804 0.29922,0.85355 -1.37168,-0.2599 -1.3551,0.31711 -0.85268,0.0483 -4.62276,-2.81303 -3.99498,-1.26941 -1.36548,-0.25065 -4.91262,-2.67238 -5.42778,-2.05259 -2.09303,-0.25943 1.13374,4.82586 0.65049,6.22174 0.75784,1.14896 -0.43795,0.34519 -0.66913,0.50687 -0.80102,0.17649 -0.3438,1.61649 -1.25464,1.69313 0.17403,0.95096 1.32596,2.88272 0.0901,2.42932 -0.68072,-0.35326 1.33514,1.99053 0.0749,1.05866 -0.49795,0.37273 -2.4795,-0.73508 -3.68767,-1.06684 -0.24582,0.7987 -4.37189,-2.27906 -5.25797,-2.11373 0.48838,1.58743 -2.72195,-0.52044 -2.76505,0.54154 -0.18091,0.84967 -0.40018,1.66327 -1.45727,1.6407 0.8743,1.17489 -4.08052,-3.47921 -2.91918,-2.01701 0.22373,1.7558 -1.69453,1.37287 -2.10777,2.49618 -2.15852,-0.13545 -2.43009,1.61819 -2.62543,3.44555 -0.22193,1.46585 2.03474,5.40859 0.98342,6.0389 0.96876,1.16584 1.0223,1.4164 -0.0145,0.57658 0.18563,1.05523 3.92442,5.66236 3.41606,6.0207 0.40856,0.40855 -1.35536,-1.35536 -1.5564,-1.5564 -0.17979,0.006 -1.56707,-1.19607 -1.01011,-0.45372 -0.40709,0.24853 0.50815,1.81842 -0.0942,1.86961 -0.23892,0.37218 2.52298,3.7442 0.95193,2.78211 -0.30311,0.28508 -1.18294,-0.008 -1.37367,0.38763 -0.87025,-0.0524 -2.12326,-0.48979 -1.77162,0.67483 -0.99707,-0.16317 -1.1291,0.53594 -1.50212,0.99097 0.0772,1.01973 -3.14027,-1.25926 -2.91308,-0.0981 -0.41751,0.42211 0.12199,1.79757 -0.63224,1.87526 -0.48174,0.47786 -2.19427,-0.28042 -1.27392,1.58822 -0.57611,0.54346 -2.33615,-0.1053 -3.87186,-0.53896 -1.20835,-0.77093 -2.84877,-1.9754 -2.89858,-1.59076 -0.13704,0.51427 1.08136,2.38059 -0.47494,1.46861 -0.2099,0.7681 -1.41931,0.52841 -2.84125,0.0672 0.19765,1.14716 2.54033,4.43057 1.04985,3.87138 -1.47235,-0.36621 0.31069,2.50966 -2.05609,1.22122 0.26796,0.7633 -7.38124,-6.39363 -7.55908,-6.08235 -1.89519,-1.12579 -1.05817,0.46633 -1.74932,0.51594 -1.16384,-0.2824 -0.79459,0.94798 -1.81003,0.77329 0.023,0.98589 -1.30594,0.59313 -1.55417,1.2542 -0.5662,0.58886 -0.53858,1.7282 -2.44451,0.89038 -2.24663,-1.20566 -4.81909,-2.77855 -5.92582,-2.92735 -1.28403,-1.28403 1.43966,1.43966 1.03111,1.03111 -1.64181,-0.93696 -4.16137,-2.77422 -5.02894,-2.98211 0.14916,0.14915 -0.37613,-0.37613 -0.64201,-0.64202 0.49351,0.58088 0.001,0.17579 0.72222,0.98312 -1.39236,-0.54847 -1.58003,0.07 -2.60474,-0.18648 -0.62335,0.0258 -3.50235,-2.23119 -4.39509,-2.5291 0.11025,0.11024 -0.15564,-0.15564 -0.11673,-0.11673 0.50709,0.86099 3.28114,3.97931 2.09666,3.12946 -1.0735,0.35124 -7.89271,-5.21823 -8.72827,-4.98101 0.23346,0.23346 4.46815,4.46815 3.83263,3.83263 -0.13341,0.80705 -7.1651,-5.42017 -8.39415,-5.98202 -0.0389,-0.0389 -0.28534,-0.28534 -0.62256,-0.62256 -0.56419,-0.5642 4.00124,4.00123 4.12445,4.12445 -2.17633,-1.48162 -4.84083,-3.60025 -6.9422,-5.30606 1.09596,1.09596 2.00386,2.00386 2.49024,2.49023 -0.34707,-0.0616 1.49993,1.99253 -0.32677,0.29417 -1.0906,-0.90701 -3.82442,-3.61853 -5.47542,-5.41011 0.7608,0.74244 0.41797,0.37846 0.76153,0.69809 -0.42581,-0.52286 -0.094,-0.33388 0.19119,-0.23754 -1.02005,-1.25297 -3.68976,-4.22562 -5.75865,-6.6679 -1.13487,-1.13487 -2.63939,-2.63939 -3.36571,-3.36571 -1.21269,-1.21269 2.42539,2.42539 2.02332,2.02332 -0.20959,-0.22641 2.88825,2.85448 1.93956,1.88869 -1.06855,-1.37435 -0.41092,-1.06821 -1.49976,-2.55449 -0.32502,-0.62036 -1.64209,-2.25813 -2.7959,-3.7581 -0.44614,-0.50884 1.34481,1.21858 1.7932,1.6026 -0.80612,-1.27047 -1.13107,-2.10328 -1.25559,-2.77937 -0.97594,-1.3363 1.53827,0.79891 0.53004,-0.60705 -1.86503,-2.36631 1.81239,0.78012 0.29048,-1.30265 -1.21086,-1.80466 -6.11514,-7.33619 -6.36495,-8.24686 -0.33073,-0.33073 -0.18158,-0.18158 -0.62256,-0.62256 0.82359,0.8236 -0.75226,-0.75226 -0.0584,-0.0584 0.20103,0.20103 -3.0674,-3.0674 -3.96881,-3.96881 -1.17379,-1.17379 -0.50583,-0.50583 -0.48638,-0.48638 0.65499,0.65499 -0.29831,-0.29831 0.31128,0.31128 -0.13618,-0.13618 4.54598,4.54598 4.45519,4.45519 -1.11531,-2.11359 -1.80476,-3.87801 -2.13681,-5.3622 0.2091,-0.40502 3.52811,2.27794 2.19671,0.2885 0.0702,-0.49221 0.002,-1.13863 -0.002,-1.73738 -0.44727,-0.69414 -4.86017,-5.3567 -4.20518,-4.95415 0.9654,0.35166 0.32977,-0.90898 0.34966,-1.52496 0.22552,-0.48752 -0.05,-1.48975 -1.13821,-3.31771 -1.49301,-1.71874 1.12724,0.67455 1.14877,0.46792 0.26656,-0.77294 1.20111,-0.90278 0.85724,-2.3343 0.093,-0.73088 2.32403,0.66296 1.61505,-0.89588 -0.48186,-1.50519 1.96036,-0.10465 1.11989,-2.00392 -0.45215,-1.28197 1.80803,0.13788 0.57415,-1.94626 -0.31714,-1.01428 0.22453,-1.17642 1.27468,-0.83643 0.0242,-0.85099 0.003,-1.75714 0.51941,-2.1344 0.21433,-0.50608 -1.44924,-2.89593 -1.83916,-4.01768 0.8094,0.5927 -1.13636,-1.57024 -1.30426,-1.9558 -0.50344,-0.97047 1.01489,0.0786 -0.30883,-1.71644 1.03007,0.25594 1.07432,-0.47966 1.82497,-0.51423 0.40195,-0.55146 2.2316,0.31688 2.92018,0.0369 -0.35886,-1.52652 0.98919,-1.35669 1.57228,-1.96124 1.82719,0.94622 3.89397,2.12686 4.11834,1.46035 1.28839,0.23668 -0.15671,-2.26671 0.62574,-2.54838 0.73651,-0.0257 -2.76924,-4.29661 -3.5524,-5.84766 0.40452,-0.40246 -0.39384,-2.01081 0.21157,-2.21806 1.05734,0.0852 4.09606,2.14802 4.91314,1.98589 1.32716,0.57334 4.27445,2.76486 5.0286,2.76156 0.94651,0.18442 0.36396,-1.16192 1.42372,-0.86739 -0.32677,-0.91952 1.03142,-0.15494 1.13706,-0.64366 0.32221,-0.79211 3.10951,0.87824 3.03215,-0.3179 -0.1673,-1.25326 0.2578,-1.91584 0.0505,-3.21181 1.17388,0.0571 1.3486,-0.88601 2.29393,-1.05882 -0.11037,-0.8334 5.03026,3.58408 4.25478,2.08554 0.2553,-0.096 0.55471,-0.14792 0.85944,-0.19447 0.97351,-0.0172 0.42432,-1.55674 0.90344,-2.06707 -0.0651,-1.07091 3.05936,1.04868 3.53911,0.52507 -0.63296,-0.63693 1.73663,1.7287 2.32286,2.31095 1.18364,-0.80328 2.52281,-1.44513 2.6278,-3.31082 -0.28263,-1.65377 1.7324,-1.00489 2.34351,-1.75344 0.33331,-0.8482 3.03611,0.67797 4.30479,0.7759 1.27845,-0.63919 1.84515,-1.97436 2.53481,-3.16651 -0.6289,-2.06238 2.10807,-0.74725 2.2264,-2.03723 0.39599,0.0487 0.12167,-0.57215 0.28695,-0.7525 -0.40207,-1.25137 3.5472,1.85375 3.66517,1.13314 2.20435,0.13812 2.50981,-1.58886 1.49102,-4.60001 0.80193,0.70142 -0.22513,-0.42606 -0.24062,-0.54185 1.17826,0.99482 1.72288,1.35636 0.56446,0.0152 -0.58359,-1.08117 -2.43016,-3.42273 -2.47031,-3.95519 -1.22566,-1.22566 -1.2516,-1.2516 -1.42021,-1.42021 1.26646,0.26623 3.44596,1.4566 4.80092,1.83436 -0.57455,-1.02878 0.67269,-0.23318 1.31622,-0.0386 0.1918,-0.5776 -0.72236,-2.24686 0.68135,-1.58391 1.92048,0.60676 0.75082,-1.83151 2.24823,-1.55734 1.8312,0.46893 4.02366,1.35539 5.15466,1.23704 0.0637,-0.36656 -1.37893,-2.23265 0.39969,-0.87081 1.69273,0.7059 4.93822,3.00231 6.27226,3.4252 -0.24643,-0.24643 2.82097,2.82097 1.73149,1.73149 0.7782,0.7782 -2.36053,-2.36053 -2.43187,-2.43187 2.2669,1.19001 4.64245,2.54166 4.75162,1.68025 0.30794,-0.0412 -2.34458,-3.03603 -1.67366,-2.70046 1.32381,-0.0677 5.25835,2.59434 7.49558,3.67931 0.74786,0.71865 -0.83889,-0.89723 -0.92763,-1.01503 1.52037,0.8292 0.15936,-1.17928 2.50996,0.56782 2.30806,1.7415 0.10533,-0.98905 0.70451,-0.87874 2.20306,1.43654 1.73296,0.29564 2.52743,0.51584 1.12038,0.55455 -0.90015,-1.93812 0.16637,-1.24932 2.39864,1.89417 1.30463,0.46412 5.08426,4.07786 0.59229,0.51459 1.1237,1.00563 1.70236,1.58146 1.54997,1.5475 0.90014,0.9234 2.92721,3.00451 0.18896,0.20819 -2.91532,-2.87327 -2.19259,-2.12414 2.05972,2.17909 1.01425,1.32637 3.51745,4.09617 0.0806,0.19111 6.03791,6.27161 5.76794,6.13755 0.81062,0.81063 0.22049,0.22049 -0.68092,-0.68092 0.27885,0.27886 3.50837,3.50838 3.57971,3.57971 -0.25292,-0.25291 -3.59268,-3.59268 -3.11279,-3.11279 0.39633,0.51655 -1.01114,-0.76075 -1.48063,-1.09009 -0.27015,0.075 2.6709,3.42173 2.45958,3.67696 -0.10491,0.13524 1.11643,1.61288 1.69257,2.46149 0.63,0.8168 1.34155,1.72277 0.59472,1.17797 -0.78863,-0.561 -1.80453,-1.3396 -0.23082,0.48111 0.9609,1.32676 4.00739,4.76039 4.06142,5.22293 0.36316,0.36316 0.92736,0.92735 0.25292,0.25291 0.61192,0.70166 0.75585,0.93634 1.36551,1.6378 0.63367,0.69494 -2.30044,-2.17743 -1.09818,-0.91297 0.0119,0.36272 5.06389,5.7801 5.26922,6.36552 0.40207,0.40207 2.25678,2.25677 1.24512,1.24512 -1.28403,-1.28403 0.0973,0.0973 0.36964,0.36964 -0.59013,-0.59013 -1.36833,-1.36833 -1.30348,-1.30348 1.14062,1.36716 -1.83097,-1.37266 -0.1942,0.50109 -0.61913,-0.13833 2.05794,3.04103 2.78976,4.29668 -0.94404,-0.90926 0.68627,0.75592 1.09723,1.20184 0.64719,0.80971 1.22581,1.55289 0.84132,1.33501 0.16818,0.28819 0.43969,0.68077 1.57448,1.93771 1.84811,3.19617 1.23762,4.06369 -0.6707,3.7644 0.0675,0.66747 1.84854,3.06666 1.22692,3.08149 -0.92879,-0.74046 -5.16485,-4.78658 -5.90414,-5.33433 z"
       transform="matrix(2.2997279,0,0,1.9717586,-422.52779,-609.10222)" />
  </g>
</svg>
